<?xml version="1.0" standalone="no"?>
<!DOCTYPE svg PUBLIC "-//W3C//DTD SVG 20010904//EN"
 "http://www.w3.org/TR/2001/REC-SVG-20010904/DTD/svg10.dtd">
<svg version="1.0" xmlns="http://www.w3.org/2000/svg"
 width="2048.000000pt" height="2048.000000pt" viewBox="0 0 2048.000000 2048.000000"
 preserveAspectRatio="xMidYMid meet">

<g transform="translate(0.000000,2048.000000) scale(0.100000,-0.100000)"
fill="#000000" stroke="none">
<path d="M9870 20474 c-1753 -70 -3408 -560 -4884 -1446 -770 -462 -1401 -959
-2041 -1609 -483 -490 -843 -931 -1220 -1494 -944 -1408 -1523 -3038 -1679
-4720 -34 -363 -40 -514 -40 -960 0 -467 7 -637 45 -1025 198 -2031 1003
-3952 2321 -5538 380 -457 860 -936 1328 -1326 1504 -1252 3338 -2046 5280
-2285 485 -60 797 -75 1409 -68 476 5 649 14 991 52 2813 314 5356 1770 7064
4045 814 1085 1397 2305 1731 3625 146 575 232 1108 287 1775 18 213 18 1258
0 1470 -34 402 -65 660 -122 997 -497 2936 -2276 5530 -4850 7068 -1387 828
-2896 1301 -4540 1421 -192 14 -891 26 -1080 18z m44 -792 c4 -7 15 -93 36
-297 5 -49 23 -217 40 -372 80 -746 90 -846 87 -850 -6 -6 -289 -34 -294 -29
-6 6 -13 64 -68 591 -55 527 -56 539 -66 430 -4 -44 -12 -136 -18 -205 -6 -69
-16 -174 -21 -235 -6 -60 -14 -159 -20 -220 -5 -60 -15 -171 -21 -245 -6 -74
-14 -138 -17 -141 -7 -7 -193 -29 -242 -29 -26 0 -31 5 -44 48 -8 26 -64 209
-126 407 -62 198 -130 418 -151 490 -41 133 -55 166 -45 105 3 -19 10 -82 16
-140 6 -58 15 -143 20 -190 6 -47 19 -173 30 -280 18 -173 26 -242 45 -422 l5
-46 -57 -7 c-32 -3 -98 -11 -146 -16 -49 -6 -91 -9 -94 -6 -7 7 -18 101 -73
632 -6 55 -15 138 -20 185 -6 47 -19 173 -30 280 -11 107 -25 231 -30 274 -6
44 -10 96 -10 116 l0 37 213 22 c116 12 223 23 237 24 27 2 23 14 150 -393 27
-85 72 -231 102 -324 l53 -169 12 134 c6 74 23 269 38 434 35 406 22 361 103
369 159 16 356 38 394 45 4 0 9 -2 12 -7z m1115 -43 c57 -5 105 -10 107 -11 1
-2 25 -109 53 -238 44 -205 84 -395 246 -1155 19 -87 33 -161 31 -163 -5 -4
-375 23 -380 29 -2 2 -12 59 -22 126 l-18 122 -41 5 c-69 9 -366 28 -369 25
-1 -2 -17 -53 -35 -114 -18 -60 -37 -115 -41 -120 -6 -8 -64 -7 -187 2 -97 8
-179 16 -182 18 -2 3 119 340 270 750 l274 745 95 -6 c52 -3 142 -10 199 -15z
m917 -115 c115 -25 270 -58 344 -74 74 -16 217 -47 318 -68 101 -22 184 -41
186 -43 5 -5 -71 -360 -79 -367 -3 -3 -84 12 -181 32 -96 21 -177 37 -178 35
-2 -2 -13 -49 -24 -104 -12 -55 -48 -226 -82 -380 -33 -154 -77 -356 -97 -450
-20 -93 -39 -174 -43 -178 -8 -9 -340 59 -351 71 -4 4 11 88 32 187 54 248
123 568 165 764 25 115 32 166 24 171 -6 3 -70 19 -143 34 -206 44 -209 45
-203 64 5 15 76 343 76 349 0 7 42 -1 236 -43z m-3921 -198 c74 -34 139 -104
184 -199 50 -105 64 -171 59 -282 -5 -116 -39 -196 -110 -260 l-48 -43 52 -16
c78 -23 152 -95 332 -326 87 -111 156 -203 154 -205 -4 -4 -383 -115 -392
-115 -3 0 -89 104 -192 231 -103 127 -201 239 -218 250 -32 20 -91 25 -114 10
-11 -6 5 -69 72 -301 48 -161 84 -295 82 -297 -6 -6 -348 -105 -351 -101 -2 2
-44 145 -95 318 -50 173 -104 358 -120 410 -80 266 -210 719 -210 731 0 9 44
26 133 52 72 21 193 56 267 78 329 98 420 110 515 65z m5285 -163 c91 -31 166
-57 167 -58 3 -2 -485 -1433 -492 -1445 -6 -10 -338 104 -342 117 -4 10 60
202 315 948 173 507 169 495 179 495 5 0 82 -25 173 -57z m-6811 -368 c205
-54 378 -226 511 -508 89 -189 120 -306 120 -457 0 -236 -102 -401 -311 -504
-114 -56 -190 -76 -284 -76 -89 0 -153 17 -244 65 -280 147 -539 641 -507 967
15 148 60 244 160 344 147 146 378 216 555 169z m7828 -30 c216 -68 374 -230
414 -424 16 -76 6 -258 -18 -346 -22 -78 -81 -221 -126 -305 -192 -353 -461
-515 -732 -441 -162 45 -323 156 -392 273 -113 187 -93 469 53 761 138 274
303 436 504 493 79 22 209 17 297 -11z m-8994 -649 c48 -69 89 -131 92 -138 3
-8 -74 -68 -210 -162 -118 -82 -215 -150 -215 -153 0 -3 133 -196 144 -210 1
-2 85 55 187 126 101 71 187 127 191 125 6 -4 149 -204 170 -240 5 -8 -54 -55
-177 -140 -102 -71 -185 -131 -185 -134 0 -3 79 -117 175 -255 96 -137 175
-252 175 -255 -1 -7 -300 -213 -304 -209 -2 3 -785 1126 -857 1230 l-18 26
367 256 c202 141 370 257 373 257 3 0 44 -56 92 -124z m10279 -111 l26 -20
-68 -460 c-38 -252 -68 -460 -67 -461 1 -1 112 148 245 331 l244 334 112 -82
c62 -45 125 -91 141 -103 l28 -21 -449 -616 c-247 -339 -453 -617 -457 -617
-17 0 -277 194 -277 207 0 8 30 212 66 454 36 243 63 443 61 445 -2 2 -109
-141 -239 -318 -129 -178 -240 -323 -246 -323 -23 0 -273 189 -267 203 4 11
581 805 827 1139 l68 93 113 -83 c62 -45 125 -91 139 -102z m-4742 -259 c994
-94 1849 -336 2710 -766 1352 -675 2473 -1746 3212 -3070 728 -1304 1052
-2830 917 -4320 -181 -2001 -1138 -3826 -2679 -5110 -1709 -1423 -3952 -2014
-6148 -1619 -796 143 -1605 432 -2312 827 -880 491 -1666 1167 -2284 1962
-721 927 -1213 2010 -1440 3165 -102 523 -143 1001 -133 1575 9 528 54 936
158 1430 502 2385 2168 4405 4419 5358 816 345 1598 525 2550 586 144 9 876
-4 1030 -18z m-6160 -921 l480 -500 -122 -117 c-68 -65 -130 -117 -138 -117
-8 0 -208 64 -443 143 -235 79 -426 140 -425 136 2 -4 128 -137 281 -295 152
-158 277 -291 277 -294 0 -3 -56 -58 -123 -123 l-124 -116 -531 551 -531 552
120 118 c66 64 125 117 132 117 7 0 208 -65 447 -145 239 -80 436 -145 439
-145 2 0 -96 103 -218 229 -121 125 -251 261 -288 301 l-68 73 125 118 125
119 52 -53 c29 -28 268 -277 533 -552z m12705 -437 c195 -226 355 -414 355
-418 0 -4 -64 -63 -142 -130 l-141 -123 -39 44 c-21 24 -75 88 -120 141 -81
95 -83 96 -103 79 -169 -151 -841 -724 -850 -725 -6 0 -64 60 -128 134 -90
104 -114 137 -104 146 6 6 197 170 422 364 226 194 416 359 424 366 12 11 -5
35 -107 152 l-122 140 138 121 c75 66 142 120 149 120 7 1 172 -184 368 -411z
m-14015 -393 c654 -528 800 -647 806 -656 5 -8 -32 -57 -203 -268 l-20 -24
-597 483 c-533 431 -595 484 -583 499 8 9 60 74 116 144 93 116 105 127 119
114 10 -8 172 -139 362 -292z m14865 -764 c135 -216 248 -398 250 -405 4 -10
-252 -176 -271 -176 -5 0 -81 115 -168 255 -97 154 -163 252 -170 248 -22 -14
-181 -116 -185 -119 -2 -2 63 -109 144 -238 81 -129 144 -239 141 -244 -8 -14
-235 -154 -251 -156 -8 0 -77 100 -155 224 -78 124 -145 229 -149 233 -7 7
-251 -138 -251 -148 0 -2 72 -118 159 -257 88 -139 161 -259 163 -265 2 -7
-62 -53 -142 -103 -113 -70 -147 -87 -156 -77 -28 31 -515 819 -512 828 2 6
291 192 643 413 473 298 643 400 651 392 7 -6 123 -188 259 -405z m-15921
-137 c78 -43 143 -78 144 -80 2 -1 -53 -106 -122 -233 -69 -127 -126 -232
-126 -235 0 -2 50 -32 112 -66 81 -45 113 -58 119 -49 4 7 52 93 106 192 54
99 103 181 109 184 8 3 256 -125 271 -141 1 -1 -47 -90 -106 -199 -77 -138
-105 -199 -97 -206 6 -5 129 -73 273 -152 l263 -142 -36 -66 c-20 -36 -61
-110 -91 -164 l-54 -97 -42 24 c-37 21 -325 179 -1085 595 -121 66 -211 121
-210 128 4 16 422 782 427 783 2 0 68 -34 145 -76z m16242 -838 c178 -38 306
-149 388 -333 30 -69 56 -178 55 -233 0 -59 -33 -164 -69 -225 -32 -53 -193
-225 -210 -225 -4 0 -55 58 -114 130 l-106 130 45 41 c61 56 89 116 83 179
-10 99 -81 163 -196 177 -123 14 -442 -113 -565 -226 -49 -44 -70 -97 -65
-162 5 -74 43 -133 101 -160 46 -21 162 -25 232 -9 22 5 40 8 41 7 1 -1 5 -79
9 -174 l7 -171 -59 -12 c-32 -7 -105 -13 -163 -13 -171 0 -280 42 -376 145
-92 100 -164 286 -164 424 0 211 175 431 455 572 257 129 489 177 671 138z
m-16530 -461 c107 -19 266 -71 380 -124 351 -165 507 -441 416 -736 -90 -288
-284 -434 -578 -435 -270 0 -622 140 -798 318 -110 112 -164 222 -173 357 -7
109 15 207 73 323 122 247 362 352 680 297z m17289 -980 c23 -93 40 -173 38
-176 -1 -4 -118 -35 -258 -69 -140 -34 -255 -65 -255 -68 1 -16 88 -363 92
-367 3 -3 117 22 254 55 136 33 254 58 261 56 7 -3 13 -12 13 -20 0 -8 16 -79
35 -158 19 -79 35 -150 35 -159 0 -20 36 -11 -640 -173 -58 -14 -199 -48 -315
-76 -115 -28 -268 -64 -340 -81 -71 -17 -142 -34 -157 -39 -15 -5 -30 -5 -33
0 -5 9 -85 334 -85 348 0 4 26 13 58 21 184 42 509 122 523 129 14 6 10 29
-29 192 -24 102 -45 186 -46 187 0 0 -129 -30 -286 -68 -157 -37 -292 -69
-301 -69 -12 0 -25 40 -58 176 -24 96 -41 176 -40 178 11 8 1457 354 1474 353
16 -2 25 -26 60 -172z m-18230 -1041 c77 -8 140 -16 141 -17 1 -1 -14 -130
-32 -287 -18 -157 -33 -292 -33 -301 -1 -14 19 -19 114 -29 64 -7 117 -11 119
-9 1 2 15 120 30 261 15 142 30 267 33 278 6 21 10 21 165 -1 37 -5 83 -9 103
-9 22 0 38 -6 41 -15 5 -12 -35 -400 -53 -517 -3 -21 -1 -38 4 -38 5 0 63 -7
128 -15 66 -8 129 -15 140 -15 19 0 22 18 54 308 18 169 35 308 36 310 5 5
335 -35 342 -42 4 -3 -3 -93 -15 -199 -12 -105 -35 -316 -52 -467 -17 -151
-33 -286 -36 -299 -5 -22 -8 -23 -52 -17 -26 3 -126 15 -222 26 -96 11 -335
38 -530 60 -195 22 -436 49 -534 60 -99 11 -182 23 -184 25 -3 3 5 91 16 197
97 869 84 780 115 773 12 -2 85 -12 162 -21z m18539 -525 c4 -78 9 -154 12
-169 6 -26 -7 -34 -395 -270 -220 -134 -399 -245 -398 -247 2 -1 184 9 406 24
235 15 406 22 411 17 10 -10 29 -326 21 -335 -5 -5 -1436 -100 -1502 -99 l-25
0 -11 168 c-6 92 -9 170 -7 173 2 4 179 114 394 245 214 130 389 239 387 241
-2 1 -73 -2 -158 -7 -252 -16 -447 -29 -556 -36 l-103 -7 0 44 c0 24 -5 100
-10 169 -5 69 -6 128 -2 131 4 4 131 14 282 23 151 10 338 22 415 27 77 5 214
14 305 20 91 6 215 14 275 18 61 5 142 9 181 10 l71 1 7 -141z m-17488 -891
c152 -165 214 -321 214 -538 0 -185 -41 -293 -151 -402 -241 -238 -797 -300
-1131 -126 -154 79 -250 201 -285 361 -23 104 -23 314 1 391 39 132 135 225
298 289 78 32 95 33 102 10 45 -154 86 -304 86 -316 0 -8 -18 -22 -39 -32 -46
-21 -96 -69 -110 -108 -19 -49 -13 -130 12 -177 25 -48 97 -103 155 -120 162
-46 446 -29 579 36 64 31 118 90 134 146 24 88 -7 204 -76 287 -28 33 -62 39
-133 25 l-31 -6 6 -118 6 -117 -89 -6 c-49 -4 -120 -8 -159 -9 l-70 -2 -7 40
c-9 51 -29 516 -23 523 6 5 420 27 561 30 l92 1 58 -62z m16927 -488 c293 -62
486 -208 557 -421 30 -89 30 -246 1 -353 -29 -104 -60 -163 -125 -233 -166
-179 -461 -239 -836 -168 -323 60 -543 233 -591 463 -25 121 2 327 58 437 74
144 236 252 438 291 102 20 371 11 498 -16z m-16655 -901 c30 -147 170 -807
177 -836 6 -24 41 -14 -380 -103 -246 -52 -432 -91 -847 -180 -131 -27 -246
-50 -256 -50 -14 0 -22 20 -41 113 -13 61 -32 150 -42 197 -10 47 -41 193 -69
325 -27 132 -54 257 -59 278 -7 27 -6 39 2 42 11 3 215 47 284 60 l31 6 15
-68 c8 -37 37 -170 63 -295 32 -150 53 -228 61 -228 7 0 57 10 113 21 77 17
100 26 100 38 0 9 -25 133 -55 275 -30 143 -54 261 -52 262 10 10 300 65 306
58 4 -5 25 -92 46 -194 77 -373 69 -345 96 -342 28 3 263 52 264 55 1 1 -24
124 -56 272 -32 149 -61 286 -65 306 l-6 36 164 35 c89 19 167 35 172 34 6 -1
21 -54 34 -117z m15777 -453 c110 -30 436 -118 725 -196 289 -77 530 -143 536
-145 8 -2 1 -43 -22 -127 -19 -68 -39 -145 -45 -171 -6 -27 -16 -50 -23 -53
-7 -3 -181 41 -387 96 -664 180 -711 192 -719 183 -5 -4 -39 -123 -76 -263
-37 -140 -71 -259 -74 -263 -12 -14 -365 88 -364 104 3 30 238 889 243 889 4
0 96 -24 206 -54z m-15390 -999 c86 -236 153 -432 149 -437 -5 -4 -297 -114
-649 -243 -796 -293 -779 -287 -782 -283 -9 8 -125 338 -121 342 5 4 1058 394
1065 394 10 0 -7 52 -91 280 -52 140 -93 256 -92 257 8 9 353 129 357 125 3
-4 77 -200 164 -435z m15263 -147 c273 -35 589 -195 744 -377 96 -113 138
-222 138 -356 0 -111 -12 -160 -65 -272 -71 -147 -168 -240 -310 -296 -53 -20
-77 -23 -205 -23 -165 -1 -240 15 -410 87 -310 132 -493 299 -555 507 -25 86
-21 213 10 307 80 240 236 385 447 418 107 17 109 17 206 5z m-14824 -845
c120 -223 216 -410 214 -416 -2 -6 -159 -94 -348 -195 -386 -207 -944 -506
-976 -522 -19 -10 -26 0 -105 146 -46 86 -85 159 -87 162 -1 3 225 127 502
275 278 149 505 275 505 280 1 6 -58 118 -129 250 -76 141 -125 244 -120 249
9 9 310 174 321 175 3 1 104 -181 223 -404z m14076 -436 c207 -25 453 -148
630 -315 252 -238 324 -498 203 -739 -60 -118 -168 -257 -240 -307 -99 -67
-234 -85 -376 -48 -126 32 -122 24 -78 137 21 54 50 130 65 170 l27 71 37 -10
c99 -27 192 15 237 107 23 47 27 64 22 109 -3 29 -15 73 -27 96 -81 158 -410
370 -574 370 -56 0 -136 -40 -174 -86 -40 -49 -62 -111 -69 -200 l-6 -71 61
-42 61 -41 62 92 c34 51 65 97 69 101 11 12 272 -164 266 -179 -3 -7 -73 -114
-156 -239 l-151 -226 -272 184 -272 183 -8 55 c-14 92 -2 285 21 359 55 168
203 355 332 420 36 18 96 38 135 45 90 17 78 17 175 4z m-13686 -404 c98 -26
166 -65 242 -140 76 -76 141 -176 175 -270 29 -80 31 -226 5 -305 -66 -197
-211 -370 -435 -522 -273 -186 -536 -226 -745 -115 -113 60 -222 190 -285 339
-23 57 -26 75 -26 183 1 106 4 128 28 188 14 37 46 98 71 136 146 226 483 462
727 510 71 14 180 12 243 -4z m12712 -984 c196 -186 234 -217 278 -231 28 -9
246 -72 483 -141 238 -68 433 -126 432 -129 0 -3 -63 -70 -139 -150 l-139
-145 -262 88 c-143 48 -263 87 -264 85 -2 -2 43 -119 100 -260 l103 -257 -135
-143 c-73 -79 -137 -144 -141 -145 -4 -2 -81 209 -172 468 l-165 470 -232 217
c-127 119 -230 221 -229 226 3 14 240 266 248 263 4 -1 109 -98 234 -216z
m-11732 -62 c148 -55 317 -237 362 -389 19 -66 15 -202 -11 -295 -41 -153
-151 -322 -311 -480 -279 -276 -551 -352 -798 -223 -88 46 -224 184 -265 269
-47 97 -59 177 -39 276 15 76 77 246 97 266 8 8 269 -119 295 -143 5 -5 0 -28
-13 -55 -32 -67 -31 -152 2 -208 54 -92 169 -114 286 -56 112 56 311 265 376
393 29 58 34 150 11 194 -31 58 -112 112 -170 112 -38 0 -130 -37 -187 -76
-28 -19 -53 -34 -55 -34 -5 0 -42 75 -104 206 l-49 105 70 46 c178 115 356
147 503 92z m1712 -1919 c52 -22 111 -81 135 -134 23 -51 25 -159 4 -210 -23
-54 -84 -116 -140 -142 -133 -62 -302 5 -360 142 -19 46 -19 154 -1 199 61
144 219 208 362 145z m8414 -5 c98 -49 159 -162 147 -268 -12 -98 -96 -202
-185 -227 -189 -52 -367 90 -349 280 7 85 44 145 130 210 58 44 176 46 257 5z
m-1493 -576 c197 -248 358 -455 358 -461 0 -16 -317 -117 -332 -106 -6 5 -30
38 -53 74 -23 35 -48 64 -56 64 -7 0 -90 -25 -184 -56 l-171 -55 2 -92 2 -92
-161 -54 c-89 -30 -164 -53 -166 -50 -6 6 48 1156 54 1162 3 3 82 30 175 60
94 30 171 56 172 56 1 1 163 -202 360 -450z m-5102 296 c165 -46 290 -135 345
-249 28 -58 60 -199 48 -211 -3 -4 -73 -3 -154 2 l-149 8 -9 49 c-6 36 -19 59
-50 91 -96 100 -251 80 -322 -42 -34 -58 -71 -182 -80 -268 -11 -110 32 -187
125 -220 100 -35 180 -6 245 88 l38 55 129 -81 c71 -44 129 -85 129 -91 0 -6
-22 -41 -49 -77 -55 -75 -145 -140 -224 -164 -138 -41 -379 8 -527 107 -171
113 -238 332 -180 578 56 230 184 383 369 436 59 17 234 11 316 -11z m3958
-127 c118 -690 122 -733 91 -838 -57 -193 -219 -294 -512 -319 -183 -16 -287
14 -387 114 -88 88 -107 150 -175 555 -32 189 -57 347 -54 349 9 9 325 57 330
50 4 -7 29 -147 98 -556 35 -205 68 -248 191 -247 116 1 185 61 185 162 0 29
-25 200 -55 379 -30 180 -53 328 -52 330 6 5 269 51 303 52 28 1 32 -3 37 -31z
m-3108 -78 c39 -5 113 -14 165 -20 52 -6 149 -17 215 -25 178 -23 259 -67 309
-167 66 -133 4 -307 -126 -350 l-43 -15 35 -18 c60 -30 99 -65 120 -106 78
-152 12 -340 -145 -410 -43 -20 -67 -23 -175 -23 -69 0 -204 10 -300 22 -96
12 -220 27 -275 33 -55 6 -103 14 -108 18 -4 4 15 198 43 432 27 233 54 469
61 524 6 55 13 106 15 114 4 14 45 12 209 -9z m1666 -98 c30 -12 74 -38 97
-57 44 -38 97 -134 107 -196 l7 -36 -157 -12 c-85 -6 -160 -9 -165 -6 -4 3
-11 18 -15 35 -3 16 -22 43 -41 60 -32 27 -41 30 -105 30 -61 0 -73 -3 -94
-25 -14 -13 -25 -34 -25 -47 0 -50 24 -63 186 -99 221 -50 314 -89 386 -166
78 -82 96 -228 41 -345 -39 -83 -97 -142 -179 -180 -155 -72 -414 -76 -573 -8
-59 26 -129 97 -164 166 -29 59 -51 144 -40 155 7 6 238 29 298 29 18 0 24 -7
29 -32 8 -43 39 -93 70 -113 100 -66 256 -20 256 75 0 75 -43 100 -260 150
-248 57 -364 161 -364 325 -1 150 95 262 264 307 98 27 363 20 441 -10z"/>
<path d="M10876 19145 c-15 -49 -52 -166 -82 -260 -29 -93 -52 -170 -51 -171
3 -2 242 -21 245 -19 1 2 -15 112 -37 246 -22 134 -41 255 -43 269 -3 18 -12
-2 -32 -65z"/>
<path d="M7650 18974 c-47 -14 -88 -28 -92 -32 -5 -5 66 -275 76 -289 4 -6
146 42 186 62 58 29 79 54 87 99 7 42 -11 112 -36 142 -42 51 -93 56 -221 18z"/>
<path d="M6290 18427 c-19 -6 -53 -30 -76 -52 -95 -96 -80 -251 47 -496 61
-115 140 -208 205 -239 64 -32 148 -25 207 16 122 86 120 230 -7 489 -70 142
-140 231 -208 266 -49 25 -121 32 -168 16z"/>
<path d="M14083 18399 c-80 -39 -178 -167 -247 -323 -90 -204 -87 -344 8 -423
70 -57 145 -67 222 -28 64 32 100 70 167 178 92 146 147 295 147 398 0 162
-156 266 -297 198z"/>
<path d="M9930 17524 c-911 -49 -1707 -225 -2483 -548 -2256 -940 -3897 -2946
-4361 -5331 -96 -493 -130 -865 -130 -1400 0 -483 25 -791 100 -1234 533
-3148 3096 -5601 6264 -5995 321 -40 430 -47 815 -53 484 -7 823 17 1260 87
1361 220 2593 800 3650 1719 155 134 532 511 666 666 925 1064 1505 2302 1723
3675 25 153 47 332 67 545 17 184 23 792 10 1007 -64 1020 -307 1936 -752
2828 -474 951 -1142 1778 -1974 2445 -792 635 -1719 1101 -2705 1359 -393 103
-804 173 -1245 211 -168 14 -759 27 -905 19z m900 -389 c1158 -101 2211 -459
3180 -1081 1098 -705 2001 -1745 2543 -2929 513 -1119 720 -2353 601 -3575
-44 -450 -142 -944 -270 -1360 -536 -1731 -1733 -3193 -3324 -4057 -1490 -810
-3224 -1043 -4890 -657 -1017 236 -2011 728 -2825 1398 -190 156 -519 469
-711 676 -277 299 -597 728 -830 1115 -470 781 -784 1668 -918 2595 -81 561
-85 1257 -11 1835 53 406 106 668 210 1028 295 1030 790 1927 1511 2737 191
215 519 529 759 725 835 685 1799 1159 2845 1399 402 92 797 145 1260 170 142
8 705 -5 870 -19z"/>
<path d="M10030 16652 c-102 -59 -237 -138 -300 -174 -282 -161 -1159 -666
-1690 -973 -161 -93 -438 -253 -515 -297 l-60 -34 -3 -1584 c-1 -1136 1 -1587
9 -1596 6 -7 61 -41 122 -75 62 -35 171 -97 242 -139 72 -42 164 -96 205 -119
41 -24 365 -211 720 -416 355 -204 692 -399 750 -432 155 -88 490 -282 609
-352 l105 -61 40 24 c23 12 131 75 241 138 110 63 322 185 470 270 239 137
979 564 1430 825 88 50 253 145 368 210 l207 118 -2 1595 -3 1595 -290 166
c-159 91 -373 215 -475 274 -102 59 -336 194 -520 300 -470 270 -892 513
-1190 686 -140 81 -262 150 -270 154 -9 3 -95 -41 -200 -103z m1591 -1542 c73
-14 127 -53 161 -119 l28 -53 -2 -957 -3 -956 -1565 0 -1565 0 -3 956 -2 957
28 53 c33 63 87 105 152 118 65 13 2704 14 2771 1z m197 -2179 c20 -10 44 -27
53 -37 18 -20 417 -634 437 -671 16 -28 15 -86 0 -101 -9 -9 -479 -12 -2054
-12 -1808 0 -2043 2 -2054 15 -31 37 -6 88 207 431 182 294 214 340 252 365
l45 29 1538 0 c1490 0 1540 -1 1576 -19z"/>
<path d="M8898 14909 c-17 -9 -18 -61 -18 -852 0 -642 3 -846 12 -855 17 -17
2679 -17 2696 0 9 9 12 213 12 855 0 823 0 843 -19 853 -27 14 -2659 13 -2683
-1z m1527 -164 c323 -86 535 -363 535 -700 0 -200 -66 -362 -205 -500 -91 -91
-175 -144 -290 -182 -71 -24 -96 -27 -220 -27 -121 -1 -149 2 -210 22 -113 38
-204 92 -282 165 -126 120 -190 241 -220 413 -65 384 200 754 589 824 72 12
229 5 303 -15z"/>
<path d="M10160 14694 c-19 -6 -70 -82 -123 -183 -31 -61 -36 -76 -24 -83 21
-11 138 -38 170 -38 l27 0 0 155 c0 166 1 163 -50 149z"/>
<path d="M10280 14545 l0 -155 24 0 c24 0 140 25 170 36 13 5 10 17 -19 75
-73 143 -117 199 -159 199 -14 0 -16 -21 -16 -155z"/>
<path d="M9992 14648 c-55 -21 -174 -96 -179 -113 -3 -9 104 -75 121 -75 3 0
24 37 47 83 23 45 48 90 57 100 23 26 13 27 -46 5z"/>
<path d="M10465 14618 c19 -29 45 -76 57 -105 17 -42 25 -52 40 -47 25 8 107
54 113 64 11 17 -148 114 -222 135 -21 6 -20 2 12 -47z"/>
<path d="M9720 14438 c-65 -89 -106 -192 -116 -294 l-7 -65 124 3 123 3 13 81
c7 44 23 114 36 156 l24 74 -76 40 c-41 21 -78 40 -82 42 -5 2 -22 -16 -39
-40z"/>
<path d="M10655 14440 c-38 -22 -73 -41 -77 -42 -4 -2 3 -37 16 -78 13 -41 30
-112 37 -158 l12 -82 124 0 123 0 0 28 c0 46 -36 176 -66 234 -29 57 -84 138
-93 138 -3 -1 -37 -19 -76 -40z"/>
<path d="M9972 14353 c-14 -26 -50 -181 -54 -228 l-3 -40 148 -3 147 -3 0 121
0 120 -28 0 c-24 0 -140 28 -184 45 -10 4 -20 0 -26 -12z"/>
<path d="M10420 14344 c-41 -12 -90 -23 -107 -23 l-33 -1 0 -120 0 -120 146 0
147 0 -6 58 c-10 91 -50 234 -66 231 -3 -1 -40 -12 -81 -25z"/>
<path d="M9600 13978 c0 -86 63 -249 127 -329 l29 -37 40 25 c21 13 57 33 80
43 l41 18 -24 73 c-14 40 -30 110 -36 156 l-11 83 -123 0 -123 0 0 -32z"/>
<path d="M9922 13949 c8 -62 31 -160 48 -203 l9 -24 49 18 c28 11 80 25 116
31 l66 12 0 114 0 113 -148 0 -149 0 9 -61z"/>
<path d="M10280 13896 l0 -114 47 -7 c25 -4 77 -17 114 -30 l69 -23 19 67 c24
82 41 164 41 196 l0 25 -145 0 -145 0 0 -114z"/>
<path d="M10631 13932 c-6 -43 -22 -113 -35 -155 l-24 -77 77 -40 c42 -22 82
-38 88 -35 18 6 83 111 106 170 21 54 46 157 47 193 0 22 -2 22 -123 22 l-124
0 -12 -78z"/>
<path d="M10105 13695 c-33 -7 -70 -17 -82 -22 l-21 -8 28 -62 c15 -34 49 -93
74 -132 40 -62 49 -71 76 -71 l30 0 0 155 c0 178 9 165 -105 140z"/>
<path d="M10280 13556 l0 -156 29 0 c23 0 35 10 64 54 38 57 107 189 107 205
0 11 -83 36 -152 46 l-48 6 0 -155z"/>
<path d="M9885 13614 c-54 -28 -75 -43 -75 -53 0 -21 222 -142 236 -129 1 2
-13 28 -31 58 -19 30 -42 76 -52 103 -9 26 -19 47 -22 47 -4 0 -28 -12 -56
-26z"/>
<path d="M10531 13607 c-6 -18 -29 -63 -51 -101 -22 -38 -38 -71 -36 -74 9 -8
156 66 198 100 38 30 39 32 22 46 -20 14 -110 62 -118 62 -2 0 -9 -15 -15 -33z"/>
<path d="M8858 12848 c-22 -17 -180 -276 -182 -297 -1 -15 118 -16 1582 -19
1460 -2 1582 -1 1582 14 0 22 -168 282 -194 300 -17 12 -223 14 -1396 14
-1086 0 -1380 -3 -1392 -12z"/>
<path d="M9785 12398 c-8 -29 -16 -69 -17 -88 l-3 -35 469 -3 c263 -1 474 2
479 7 5 5 3 35 -4 72 -21 110 31 99 -469 99 l-439 0 -16 -52z"/>
<path d="M7149 11676 c-107 -62 -412 -238 -679 -391 -267 -153 -613 -353 -770
-443 -402 -233 -621 -358 -882 -507 l-227 -130 -1 -1591 c0 -1262 3 -1594 13
-1602 6 -5 311 -182 677 -392 740 -426 822 -473 1164 -671 132 -77 241 -139
242 -139 2 0 150 -86 330 -191 180 -104 332 -188 340 -185 7 3 88 49 181 102
92 54 357 206 588 339 231 133 490 282 575 332 85 49 178 102 205 118 28 15
214 122 415 238 201 116 460 265 575 332 l210 120 3 1588 2 1587 -37 24 c-21
13 -85 51 -143 84 -137 77 -450 257 -720 414 -260 150 -324 187 -835 481 -220
127 -539 311 -710 410 -170 99 -313 181 -316 183 -3 2 -93 -48 -200 -110z
m612 -1004 c32 -36 37 -77 15 -120 -23 -45 -49 -52 -209 -54 l-147 -3 -3 -413
-2 -412 243 0 242 0 0 356 c0 399 1 408 67 439 49 24 106 7 133 -38 19 -30 20
-53 20 -394 l0 -363 114 0 c154 0 205 -20 253 -98 21 -34 23 -49 23 -179 l0
-143 283 0 282 0 0 138 c0 75 3 150 8 165 9 34 61 67 106 67 24 0 42 -9 67
-34 l34 -34 0 -216 c0 -233 -5 -259 -52 -284 -16 -9 -121 -13 -373 -15 l-350
-2 -3 -172 -2 -173 308 0 c268 0 311 -2 331 -16 37 -26 51 -74 51 -174 l0 -90
166 0 166 0 29 -29 c24 -24 29 -38 29 -76 0 -40 -5 -52 -31 -76 l-31 -29 -239
0 -239 0 -32 29 -33 29 -3 111 -4 111 -234 0 -234 0 0 -220 0 -220 439 0 c262
0 450 -4 465 -10 14 -5 35 -24 46 -42 18 -30 20 -51 20 -236 0 -230 -7 -259
-65 -286 -18 -9 -38 -16 -45 -16 -7 0 -27 7 -45 16 -55 26 -65 62 -65 223 l0
141 -372 -2 -373 -3 -5 -135 c-5 -146 -10 -160 -64 -208 -44 -39 -91 -52 -184
-52 l-72 0 2 -180 3 -180 222 -2 222 -3 30 -29 c38 -36 46 -74 27 -119 -26
-64 -41 -67 -356 -67 -245 0 -286 2 -310 17 -52 31 -55 45 -55 314 l0 249
-267 0 -268 0 0 -100 0 -100 95 0 c103 0 141 -12 169 -52 13 -19 16 -61 16
-256 l0 -234 -34 -34 c-40 -40 -83 -45 -133 -14 -45 27 -55 73 -51 235 l3 133
-107 4 c-106 3 -108 3 -140 36 l-33 32 -3 175 -3 175 -220 0 -219 0 0 -358 c0
-393 1 -385 -62 -418 -42 -22 -90 -11 -122 27 l-26 31 0 359 0 359 -67 0 c-85
0 -134 13 -174 47 -57 48 -69 90 -69 251 l0 142 -160 0 -160 0 0 -126 c0 -141
-12 -184 -61 -209 -40 -21 -567 -22 -607 -1 -81 42 -89 132 -16 181 26 18 50
20 247 23 l217 3 0 130 c0 217 2 219 320 219 l220 0 0 195 0 195 -458 0 c-507
0 -490 -2 -518 66 -14 33 -12 48 9 92 25 51 32 52 517 52 l450 0 0 185 0 185
-275 0 c-296 0 -318 3 -343 52 -7 14 -13 77 -14 158 l-3 135 -220 5 c-237 5
-254 9 -280 60 -19 37 -19 54 0 90 30 57 46 60 361 60 l286 0 34 -34 34 -34 0
-141 0 -141 209 0 209 0 4 139 c3 138 3 140 34 178 52 65 101 83 226 83 l108
0 0 155 0 155 -91 0 c-109 0 -150 16 -174 66 -14 29 -16 68 -13 260 l3 226 33
29 c45 40 99 40 144 0 l33 -29 3 -166 3 -166 97 0 c108 0 154 -18 172 -66 6
-14 10 -124 10 -245 l0 -219 175 0 175 0 0 486 0 486 35 35 34 34 231 -3 232
-3 29 -33z"/>
<path d="M6450 8550 l0 -930 935 0 935 0 0 930 0 930 -935 0 -935 0 0 -930z
m1506 556 c12 -17 14 -109 14 -555 0 -295 -4 -541 -8 -547 -21 -32 -52 -34
-572 -34 -520 0 -551 2 -572 34 -4 6 -8 255 -8 553 l0 542 23 16 c19 14 84 15
565 13 525 -3 544 -4 558 -22z"/>
<path d="M12920 11693 c-91 -53 -361 -208 -600 -346 -239 -137 -505 -290 -590
-340 -144 -84 -382 -221 -1102 -635 l-288 -166 0 -1590 1 -1591 212 -121 c117
-67 367 -211 557 -321 190 -110 415 -239 500 -288 85 -48 187 -107 225 -130
39 -23 223 -130 410 -237 187 -107 454 -261 592 -341 139 -81 258 -147 265
-147 7 0 74 35 148 79 229 133 545 315 1270 731 256 147 661 380 900 518 l435
251 2 1593 2 1593 -202 115 c-111 63 -273 156 -360 207 -88 51 -160 93 -162
93 -2 0 -50 27 -107 61 -57 34 -416 241 -798 461 -382 220 -791 456 -908 524
-117 68 -218 124 -225 123 -6 0 -86 -43 -177 -96z m958 -925 c8 -8 12 -46 12
-104 l0 -92 53 -17 c28 -9 77 -29 108 -45 l56 -28 64 64 c40 41 72 64 86 64
30 0 213 -178 213 -208 0 -12 -26 -47 -65 -86 l-66 -65 27 -53 c15 -29 35 -75
44 -103 l17 -50 89 -3 c125 -4 124 -3 124 -166 0 -72 -5 -138 -10 -146 -7 -11
-35 -16 -105 -20 l-96 -5 -24 -68 c-13 -37 -33 -84 -45 -104 l-21 -36 65 -66
c38 -38 66 -75 66 -87 0 -20 -187 -214 -206 -214 -16 0 -57 32 -107 83 l-48
50 -77 -36 c-42 -20 -92 -39 -109 -43 l-33 -6 0 -91 c0 -127 0 -127 -162 -127
-165 0 -168 2 -168 128 l0 88 -57 18 c-32 10 -79 30 -106 44 l-47 25 -69 -66
c-38 -37 -75 -67 -81 -67 -7 0 -57 44 -111 97 -67 66 -99 104 -99 119 0 14 22
46 60 84 33 34 60 64 60 67 0 3 -13 33 -29 67 -16 33 -35 80 -42 104 l-12 42
-93 0 c-123 0 -124 2 -124 167 0 160 3 163 130 163 90 0 90 0 96 28 4 15 23
62 42 105 l35 78 -61 62 c-42 43 -62 70 -62 87 0 34 175 210 208 210 16 0 47
-22 90 -63 l67 -64 40 23 c22 13 68 33 103 45 l62 21 0 86 c0 123 -1 122 170
122 92 0 140 -4 148 -12z m-1114 -1439 c26 -20 26 -21 26 -158 l0 -137 88 -27
c48 -16 119 -45 157 -66 l70 -37 96 93 c135 131 126 133 308 -51 132 -134 143
-147 137 -173 -4 -16 -47 -69 -100 -123 l-93 -95 36 -65 c19 -36 50 -105 67
-155 l31 -90 134 -3 c189 -4 179 9 179 -237 0 -257 9 -245 -178 -245 l-137 0
-28 -88 c-15 -48 -45 -118 -66 -157 l-37 -70 94 -97 c131 -133 133 -122 -44
-299 -177 -178 -168 -176 -303 -45 l-96 94 -59 -33 c-32 -18 -103 -48 -157
-66 l-99 -34 0 -137 c0 -186 11 -178 -240 -178 -251 0 -240 -8 -240 179 l0
137 -76 24 c-41 12 -113 42 -158 64 l-83 42 -96 -93 c-134 -130 -124 -132
-305 50 -100 102 -142 150 -142 167 0 15 31 54 97 122 l97 98 -42 88 c-24 48
-53 119 -66 157 l-23 70 -134 3 c-189 4 -179 -10 -179 242 0 252 -10 238 179
242 l133 3 28 81 c27 79 82 199 101 218 5 6 -30 49 -91 112 -69 69 -100 108
-100 124 0 17 41 65 142 167 181 182 172 181 307 50 l96 -93 70 38 c39 20 109
50 157 65 l88 28 0 137 c0 186 -11 178 240 178 174 0 189 -1 214 -21z"/>
<path d="M13599 10262 c-106 -35 -194 -114 -247 -222 -24 -50 -27 -65 -27
-165 0 -105 2 -114 33 -177 169 -345 669 -295 768 76 31 115 5 242 -69 343
-47 63 -94 99 -172 134 -70 31 -208 36 -286 11z"/>
<path d="M12421 8594 c-148 -32 -294 -130 -373 -251 -76 -116 -108 -217 -107
-343 0 -270 180 -507 444 -586 89 -27 249 -25 340 3 310 97 494 419 415 727
-82 323 -398 520 -719 450z"/>
<path d="M8611 5045 c-48 -90 -189 -194 -331 -243 l-30 -11 0 -127 0 -126 28
7 c59 15 179 71 239 112 l63 43 0 -370 0 -370 155 0 155 0 0 565 0 565 -128 0
-127 0 -24 -45z"/>
<path d="M9512 5080 c-173 -37 -287 -170 -299 -348 -15 -216 124 -385 329
-400 82 -6 152 15 220 65 l48 35 -6 -49 c-21 -174 -65 -243 -155 -243 -45 0
-69 17 -90 66 -11 24 -25 44 -32 44 -7 0 -74 -7 -150 -17 l-139 -17 6 -30 c10
-48 71 -132 124 -170 85 -62 238 -87 378 -63 196 35 316 157 360 367 23 110
15 370 -14 461 -47 142 -139 242 -261 280 -75 23 -250 34 -319 19z m226 -225
c83 -75 82 -237 -3 -303 -33 -26 -111 -30 -154 -7 -43 22 -71 88 -71 168 0
122 42 177 136 177 47 0 59 -4 92 -35z"/>
<path d="M10530 5075 c-130 -30 -230 -119 -271 -244 -17 -51 -21 -80 -17 -150
7 -147 73 -253 196 -313 61 -30 75 -33 157 -33 97 1 150 19 207 73 15 14 29
24 31 21 9 -11 -24 -182 -43 -218 -49 -97 -178 -94 -210 4 -7 20 -18 35 -27
35 -37 0 -279 -33 -285 -39 -13 -11 39 -108 82 -155 56 -60 126 -92 234 -106
279 -38 483 93 547 350 19 74 19 366 0 440 -16 65 -60 158 -99 206 -38 48
-117 100 -182 119 -79 23 -240 28 -320 10z m240 -223 c83 -83 77 -240 -11
-303 -43 -31 -117 -32 -156 -3 -50 38 -68 80 -67 164 0 124 45 180 142 180 50
0 58 -3 92 -38z"/>
<path d="M11270 4940 l0 -130 270 0 c149 0 270 -3 270 -6 0 -3 -13 -23 -29
-43 -101 -129 -203 -316 -250 -463 -24 -78 -71 -293 -71 -330 0 -4 69 -8 154
-8 l155 0 6 58 c36 320 145 576 328 771 l72 76 -3 103 -3 102 -450 0 -449 0 0
-130z"/>
<path d="M1805 13420 c-143 -55 -179 -226 -72 -339 136 -143 514 -255 652
-192 72 32 125 113 125 191 0 120 -115 220 -350 304 -158 57 -270 68 -355 36z"/>
<path d="M18637 9520 c-121 -31 -187 -108 -187 -217 0 -83 46 -150 135 -195
47 -24 190 -56 306 -68 178 -18 303 11 368 85 72 82 65 212 -15 287 -39 36
-124 74 -209 93 -83 19 -344 28 -398 15z"/>
<path d="M17921 6996 c-87 -29 -141 -107 -141 -204 0 -51 5 -67 33 -108 42
-63 108 -113 232 -174 132 -65 214 -91 307 -97 70 -5 82 -3 133 22 99 48 141
155 101 260 -36 94 -202 207 -405 275 -109 37 -199 46 -260 26z"/>
<path d="M3425 5312 c-68 -26 -86 -35 -190 -106 -269 -183 -350 -367 -221
-501 75 -79 171 -83 311 -15 147 72 320 222 370 319 19 38 25 66 25 115 0 55
-4 70 -32 112 -58 84 -161 114 -263 76z"/>
<path d="M12823 2057 c3 -104 8 -191 11 -194 11 -11 208 58 203 71 -6 14 -194
286 -210 301 -6 7 -8 -55 -4 -178z"/>
<path d="M9125 1978 c-7 -18 -24 -182 -20 -187 9 -8 182 -22 212 -16 42 8 73
48 73 94 0 70 -36 94 -160 106 -36 4 -73 9 -83 11 -9 3 -19 -1 -22 -8z"/>
<path d="M9075 1566 c-2 -6 -6 -40 -10 -76 -3 -36 -8 -79 -11 -96 l-5 -30 119
-13 c113 -13 122 -13 158 5 74 36 77 141 6 178 -40 21 -253 47 -257 32z"/>
</g>
</svg>
